<?xml version="1.0" encoding="UTF-8" standalone="no"?>
<svg
   xmlns:dc="http://purl.org/dc/elements/1.1/"
   xmlns:cc="http://creativecommons.org/ns#"
   xmlns:rdf="http://www.w3.org/1999/02/22-rdf-syntax-ns#"
   xmlns:svg="http://www.w3.org/2000/svg"
   xmlns="http://www.w3.org/2000/svg"
   viewBox="0 0 418.58667 59.639999"
   height="59.639999"
   width="418.58667"
   xml:space="preserve"
   id="svg2"
   version="1.1"><metadata
     id="metadata8"><rdf:RDF><cc:Work
         rdf:about=""><dc:format>image/svg+xml</dc:format><dc:type
           rdf:resource="http://purl.org/dc/dcmitype/StillImage" /></cc:Work></rdf:RDF></metadata><defs
     id="defs6" /><g
     transform="matrix(1.3333333,0,0,-1.3333333,0,59.64)"
     id="g10"><g
       transform="scale(0.1)"
       id="g12"><path
         id="path14"
         style="fill:#ffffff;fill-opacity:1;fill-rule:nonzero;stroke:none"
         d="m 2157.21,378.176 -2.77,30.59 -0.05,0.316 -0.79,-0.219 c -2.84,-0.879 -9.51,-1.566 -15.47,-1.566 h -55.49 v -5.496 l 10.02,-2.031 c 3.32,-0.723 3.32,-0.762 3.32,-2.293 V 323.91 c 0,-1.551 0,-1.621 -3.49,-2.332 l -8.45,-1.82 -0.19,-0.059 v -5.457 h 46.16 v 5.457 l -12.52,2.485 -0.89,0.175 c -2.32,0.379 -2.32,0.379 -2.32,1.856 v 33.437 h 16.78 c 2.85,-2.824 5.96,-10.664 7.01,-15.109 l 0.12,-0.477 h 4.59 v 36.192 h -4.65 l -0.06,-0.539 c -0.56,-4.199 -4.01,-10.633 -6.98,-13.047 h -16.81 v 34.785 c 3,0.703 6.91,1.188 9.6,1.188 h 1.48 c 7.78,0 15.89,-2.165 19.26,-4.254 2.66,-3.485 5.51,-10.469 7.23,-17.723 l 0.13,-0.492 z m -100.82,-16.238 c 0,27.011 -20.8,47.441 -48.39,47.644 v 0.027 l -0.66,-0.027 c -27.59,-0.203 -48.38,-20.633 -48.38,-47.644 0,-24.297 18.18,-49.473 48.64,-49.629 h 0.15 c 30.46,0.156 48.64,25.332 48.64,49.629 m -48.7,-42.856 c -21.11,0.09 -28.6,23.141 -28.6,42.856 0,11.14 2.27,21.203 6.45,28.222 4.99,8.508 12.43,12.824 22.15,12.852 9.68,-0.028 17.13,-4.344 22.1,-12.852 4.17,-7.051 6.46,-17.109 6.46,-28.222 0,-19.715 -7.48,-42.766 -28.56,-42.856 m -123.94,81.449 4.78,1.285 v 5.481 h -29.91 v -5.496 l 7.04,-1.446 c 1.75,-0.32 3.37,-0.722 3.65,-1.289 0.1,-0.195 0.1,-0.652 -0.49,-1.57 l -20.1,-34.18 -22.52,34.664 c -0.56,0.762 -0.53,1.028 -0.53,1.141 0.13,0.277 1.25,0.512 2.09,0.707 l 7.56,1.813 0.15,0.031 v 5.625 h -38.18 v -5.543 l 4.58,-1.637 c 1.95,-0.719 2.43,-1.246 3.83,-3.304 l 28.78,-44.114 v -28.484 c 0,-1.184 -0.33,-1.719 -3.5,-2.336 l -10.23,-2.121 -0.17,-0.059 v -5.457 h 46.17 v 5.457 l -10.59,2.18 c -3.34,0.703 -3.34,0.742 -3.34,2.336 v 31.328 l 26.12,41.586 c 1.41,2.328 2.52,2.777 4.81,3.402 m -116.1,-22.207 h 5.35 l -1.12,30.731 v 0.324 l -0.86,-0.383 c -1.98,-0.937 -8.61,-1.699 -11.87,-1.699 h -58.82 c -5.41,0 -10.54,0.707 -13.45,1.859 l -0.84,0.301 -1.07,-30.727 -0.03,-0.269 h 5.24 l 0.07,0.5 c 1.42,5.996 4.21,14.324 6.96,18.484 2.69,1.602 9.39,3.352 17.9,3.352 h 4.57 V 323.91 c 0,-1.445 0,-1.445 -3.05,-2.09 l -10.27,-2.062 -0.16,-0.059 v -5.457 h 45.57 v 5.457 l -10.29,2.055 -0.41,0.105 c -2.94,0.606 -2.94,0.606 -2.94,2.051 v 76.887 h 6.04 c 7.07,0 11.34,-0.527 16.45,-3.527 2.56,-4.161 5.67,-12.411 6.93,-18.426 z m -152.58,-64.082 h 42.78 v 5.457 l -8.85,1.879 c -3.32,0.711 -3.32,0.781 -3.32,2.332 v 73.567 c 0,1.492 0,1.531 3.52,2.293 l 8.46,2.031 0.19,0.015 v 5.481 h -42.78 v -5.481 l 8.82,-2.046 c 3.34,-0.723 3.34,-0.762 3.34,-2.293 V 323.91 c 0,-1.551 0,-1.621 -3.48,-2.332 l -8.48,-1.82 -0.2,-0.059 z m -74.65,74.746 c 0,8.535 6,14.504 14.62,14.504 7.43,0 12.05,-3.609 15.92,-7.441 2.44,-3.754 5.07,-10.86 6.29,-16.91 l 0.07,-0.555 h 5.51 l -0.94,30.059 v 0.257 h -4.07 l -2.96,-4.097 c -5.95,3.254 -12.39,4.804 -19.65,4.804 -18.6,0 -32.06,-10.601 -32.06,-25.16 0,-12.308 6.65,-20.527 21.58,-26.652 l 9.31,-3.836 c 7.26,-3.039 14.01,-7.305 14.01,-17.766 0,-10.742 -7.05,-17.406 -18.34,-17.406 -8.76,0 -13.37,4.332 -16.3,8.09 -2.91,5.586 -4.67,13.762 -5.91,20.234 l -0.07,0.559 h -5.83 l 0.13,-2.805 c 0.05,-2.859 0.13,-5.859 0.24,-8.82 0.3,-8.844 0.61,-18.863 0.28,-22.867 l -0.03,-0.692 h 4.28 l 2.42,4.215 c 6.19,-2.851 13.53,-4.215 22.41,-4.215 20.96,0 35.02,11.219 35.02,27.977 0,14.656 -9.93,21.39 -20.65,26.492 l -13.51,6.348 c -8.46,4.035 -11.77,8.398 -11.77,15.683 m -70.52,-74.695 24.62,-0.051 v 5.426 l -8.5,2.309 c -3.24,2.089 -6.02,5.078 -8.92,9.824 l -8.6,13.762 c -4.06,6.355 -6.88,9.847 -9.53,11.941 11.5,2.961 22.92,12.41 22.92,25 0,15.269 -13.66,24.793 -35.74,24.793 h -43.44 v -5.305 l 8.79,-2.086 c 3.34,-0.711 3.34,-0.898 3.34,-2.429 V 323.91 c 0,-1.551 0,-1.621 -3.48,-2.332 l -8.5,-1.82 -0.15,-0.059 v -5.457 h 42.6 v 5.457 l -8.94,1.879 c -3.03,0.578 -3.03,0.781 -3.03,2.488 v 29.981 h 10.21 l 13.62,-23.074 c 5.41,-9.114 9.66,-14.727 12.65,-16.621 z m -28.48,46.656 h -8.08 v 38.645 c 1.42,0.383 5.01,1.347 7.52,1.347 h 2.49 c 13.4,0 19.98,-6.16 19.98,-18.875 0,-13.793 -7.6,-21.117 -21.91,-21.117 m -115.47,-39.293 v 37.41 h 15.59 c 3.85,-2.734 6.64,-7.488 7.99,-13.679 l 0.13,-0.52 h 4.13 v 35.149 h -4.17 l -0.09,-0.539 c -0.68,-4.364 -4.06,-10.711 -7.97,-13.204 h -15.61 v 33.586 c 2.85,0.496 6.16,0.786 9.6,0.786 h 1.31 c 8.68,0 17.37,-2.165 20.76,-4.254 2.5,-3.34 5.14,-9.754 7.19,-17.782 l 0.19,-0.433 h 5.17 l -2.78,30.617 v 0.363 l -0.8,-0.293 c -2.26,-0.746 -7.72,-1.566 -11.65,-1.566 h -59.63 v -5.496 l 8.8,-1.895 c 3.36,-0.711 3.36,-0.898 3.36,-2.429 V 323.91 c 0,-1.551 0,-1.621 -3.51,-2.332 l -8.46,-1.82 -0.19,-0.059 v -5.457 h 74.26 l 4.45,29.875 0.06,0.254 h -5.26 l -0.13,-0.473 c -2.03,-6.941 -6.01,-15.347 -8.82,-18.718 -4.11,-3.075 -13.41,-4.461 -18.72,-4.461 h -3.42 c -5.25,0 -8.13,0.398 -10.91,0.808 z m -56.8,80.145 0.15,0.047 v 5.449 h -29.16 v -5.481 l 7.49,-1.757 c 1.15,-0.231 2.55,-0.602 2.8,-1.051 0.11,-0.238 0.03,-0.703 -0.3,-1.465 l -24.14,-61.953 -23.87,61.539 c -0.37,0.851 -0.45,1.406 -0.27,1.703 0.27,0.488 1.12,0.762 2.46,1.074 l 8.04,1.711 0.18,0.055 v 5.625 h -38.16 v -5.582 l 4.4,-1.477 0.24,-0.105 c 1.85,-0.625 3.07,-1.035 3.82,-3.098 l 33.17,-84.277 0.06,-0.145 h 7.96 l 36.03,84.422 c 0.95,2.207 2.03,2.559 3.49,3 z m -163.61,-87.559 h 42.77 v 5.457 l -8.8,1.879 c -3.33,0.711 -3.33,0.781 -3.33,2.332 v 73.567 c 0,1.414 0,1.531 3.51,2.293 l 8.47,2.031 0.15,0.015 v 5.481 h -42.77 v -5.481 l 8.84,-2.046 c 3.32,-0.723 3.32,-0.762 3.32,-2.293 V 323.91 c 0,-1.551 0,-1.621 -3.5,-2.332 l -8.45,-1.82 -0.21,-0.059 z m -38.21,85.977 9.28,1.582 v 5.496 h -36.56 v -5.496 l 12.54,-1.895 c 1.47,-0.199 2.11,-1.074 2.27,-2.988 0.4,-2.91 0.88,-8.633 0.88,-15.125 v -38.996 l -51.46,64.25 -0.21,0.25 h -26.711 v -5.625 l 7.762,-1.766 0.621,-0.136 c 3.113,-0.762 3.196,-0.762 3.196,-2.469 v -57.988 c 0,-3.926 -0.383,-8.516 -0.657,-11.875 l -0.234,-3.731 c -0.281,-1.73 -0.563,-2.18 -2.133,-2.434 l -9.422,-1.574 v -5.457 h 36.528 v 5.485 l -12.56,1.851 c -1.554,0.281 -1.866,0.711 -2.136,2.449 -0.304,2.852 -0.863,9.856 -0.863,15.442 v 48.894 l 60.679,-75.652 0.19,-0.223 h 5.83 v 69.578 c 0,4.676 0.3,8.852 0.5,11.922 l 0.02,0.387 c 0.05,0.844 0.12,1.582 0.14,2.242 l 0.08,0.86 c 0,2.031 0.74,2.429 2.43,2.742 m -119.264,1.582 0.176,0.015 v 5.481 h -31.941 v -5.496 l 9.82,-2.031 c 2.934,-0.575 2.934,-1.055 2.934,-2.293 v -46.93 c 0,-18.871 -9.258,-29.707 -25.446,-29.707 -14,0 -22.316,10.637 -22.316,28.383 v 48.078 c 0,1.617 0.113,2.078 2.73,2.605 l 9.082,1.867 0.188,0.028 v 5.496 h -40.852 v -5.481 l 7.61,-1.757 c 2.609,-0.528 2.754,-1.059 2.754,-2.582 v -48.254 c 0,-23.106 14.441,-36.914 38.726,-36.914 23.039,0 36.785,14.316 36.785,38.238 v 46.93 c 0,1.355 0,1.902 2.946,2.582 z M 2114.61,194.277 V 98.3203 L 1991.63,249.984 h -55.45 v -9.769 l 15.75,-3.637 c 9.45,-2.047 10.48,-2.047 10.48,-7.433 V 97.0117 c 0,-9.4336 -1.03,-26.5429 -1.67,-34.2461 -0.67,-6.0468 -2.05,-7.3828 -6.12,-7.9804 l -20.41,-3.4375 v -9.375 h 79.25 v 9.375 l -27.54,4.0351 c -3.7,0.7305 -5.38,2.6836 -6.1,7.3828 -0.95,9.7149 -1.62,24.8125 -1.62,34.5391 V 215.754 L 2122.66,37.9102 h 7.46 V 194.59 c 0,12.148 0.63,26.191 0.97,34.937 0.36,6.375 3.7,7.051 7.04,7.7 l 20.2,3.316 v 9.441 h -79.32 v -9.441 l 28.25,-3.965 c 4.01,-0.676 5.38,-2.047 6.01,-8.058 0.67,-7.375 1.34,-21.508 1.34,-34.243 m -188.24,-45.644 c 0,59.433 -45.68,106.734 -109.24,106.734 -63.11,0 -108.84,-47.633 -108.84,-106.734 0,-60.0588 45.73,-110.9767 108.84,-110.9767 63.91,0 109.24,51.25 109.24,110.9767 m -39.34,0 c 0,-50.9377 -20.15,-98.633 -69.9,-98.633 -49.69,0 -69.21,44.9609 -69.21,98.633 0,50.371 19.86,94.605 69.21,94.605 50.43,0 69.9,-44.898 69.9,-94.605 m -218.84,31.933 h 9.1 l -3.96,72.395 h -7.13 l -6.38,-8.699 c -9.04,4.394 -24.85,11.105 -57.11,11.105 -72.64,0 -121.01,-45.015 -121.01,-105.387 0,-60.7222 42.03,-111.3667 107.88,-111.3667 36.61,0 71.61,9.414 87.08,17.7734 l -1.69,6.3789 v 62.0974 c 0,6.66 2.32,8.36 8.71,11.055 l 5.69,2.344 v 7.676 h -80.65 v -9.004 l 23.89,-5.743 c 7.04,-1.66 8.42,-3.3 8.42,-8.007 V 63.4766 c -8.42,-8.0938 -27.92,-13.75 -45.02,-13.75 -40.67,0 -74.66,36.5039 -74.66,102.2854 0,52.383 26.91,91.918 80.34,91.918 26.23,0 41.99,-8.387 50.09,-15.41 5.98,-9.399 13.74,-33.207 16.41,-47.954 m -245.05,69.418 h -134.13 v -9.769 l 19.87,-4 c 7.73,-1.328 8.67,-2.313 8.67,-7.07 V 62.4414 c 0,-4.707 -0.94,-5.3633 -9.02,-6.6992 l -19.52,-4.082 v -9.6875 h 166.05 l 9.69,65.4103 h -9.03 c -4.37,-15.0978 -12.77,-34.9025 -19.89,-43.2619 -9.37,-7.043 -30.88,-10.4297 -43.96,-10.4297 h -7.77 c -14.07,0 -23.82,1.3867 -31.26,2.4219 v 87.4997 h 40.35 c 9.76,-6.679 15.44,-18.457 18.5,-32.187 h 6.76 v 76.504 h -6.76 c -1.65,-10.43 -9.08,-25.157 -18.5,-30.887 h -40.35 v 78.859 c 7.1,1.325 18.12,1.969 26.24,1.969 h 3.07 c 20.46,0 41.64,-5.308 49.04,-10.043 6.37,-8.707 11.76,-25.484 15.83,-40.933 h 9.03 l -6.05,66.8 c -5.03,-1.699 -17.45,-3.711 -26.86,-3.711 M 1226.37,41.9727 h 51.1 v 9.375 l -20.18,5.3711 c -7.08,4.375 -13.73,11.4375 -21.12,22.8125 l -20.85,31.8947 c -10.78,17.129 -15.81,23.808 -22.23,27.851 28.58,6.075 53.47,28.848 53.47,56.036 0,36.539 -34.3,54.671 -79.67,54.671 h -97.44 v -9.062 l 19.85,-4.344 c 6.33,-1.328 8.67,-2.047 8.67,-7.433 V 62.4414 c 0,-4.707 -0.99,-5.0586 -9.01,-6.6992 l -19.51,-4.082 v -9.6875 h 92.09 v 9.375 l -20.1,4.0351 c -7.13,1.336 -8.14,2 -8.14,7.0586 v 69.7856 h 32.61 l 31.6,-52.9887 c 10.38,-17.0899 21.48,-32.5586 28.86,-37.2656 m -67.21,102.9883 h -25.86 v 90.289 c 5.05,1.328 14.81,3.324 20.52,3.324 h 7.72 c 33.26,0 48.73,-14.414 48.73,-44.297 0,-30.839 -16.47,-49.316 -51.11,-49.316 m -316.66,3.672 c 0,-60.0588 45.723,-110.9767 108.867,-110.9767 63.873,0 109.223,51.25 109.223,110.9767 0,59.433 -45.73,106.734 -109.223,106.734 -63.144,0 -108.867,-47.633 -108.867,-106.734 m 39.645,0 c 0,50.371 19.808,94.605 69.222,94.605 50.453,0 69.933,-44.898 69.933,-94.605 C 1021.3,97.6953 1001.11,50 951.367,50 c -49.703,0 -69.222,44.9609 -69.222,98.633" /><path
         id="path16"
         style="fill:#ffffff;fill-opacity:1;fill-rule:nonzero;stroke:none"
         d="m 407.012,286.617 c -1.367,24.785 -4.008,51.18 -17.879,71.137 -27.297,39.223 -73.528,55.312 -118.32,54.926 -44.883,-0.375 -91.133,-15.703 -118.293,-54.926 -13.883,-19.957 -16.575,-46.352 -17.918,-71.137 -0.993,-18.242 -1.672,-40.484 -1.75,-62.965 -0.098,-22.519 0.554,-44.746 1.464,-62.949 1.426,-24.902 4.321,-51.152 18.204,-71.2108 27.16,-39.2109 73.304,-54.5313 118.293,-54.9024 44.902,-0.3906 91.023,15.6915 118.32,54.9024 13.871,20.0588 16.711,46.3088 18.035,71.2108 1,18.203 0.715,40.02 0.742,62.578 0.024,22.535 0.082,45.094 -0.898,63.336 M 535.645,150.242 C 526.52,92.2656 478.176,49.4922 422.41,28.125 376.27,10.3516 323.605,1.79688 270.813,1.82422 218.215,1.95313 165.332,10.3516 119.172,28.125 63.3203,49.4922 14.9883,92.2656 5.92578,150.242 2.35547,172.871 -0.09375,197.59 0,223.652 c 0.113281,26.02 2.35547,50.766 5.92578,73.442 9.06252,57.949 57.39452,100.656 113.24622,122.14 46.16,17.664 99.043,26.075 151.641,26.2 52.792,0.035 105.457,-8.536 151.597,-26.2 55.766,-21.484 104.11,-64.191 113.235,-122.14 3.503,-22.676 5.875,-47.422 5.875,-73.442 0,-26.093 -2.372,-50.781 -5.875,-73.41" /><path
         id="path18"
         style="fill:#ffffff;fill-opacity:1;fill-rule:nonzero;stroke:none"
         d="m 676.57,0 h 6.68359 V 447.262 H 676.57 Z" /><path
         id="path20"
         style="fill:#ffffff;fill-opacity:1;fill-rule:nonzero;stroke:none"
         d="m 2310.52,0 h 6.6797 v 447.262 h -6.6797 z" /><path
         id="path22"
         style="fill:#ffffff;fill-opacity:1;fill-rule:nonzero;stroke:none"
         d="m 2509.35,286.969 h 26.88 v -88.571 h 40.09 v -21.289 h -66.97 v 109.86" /><path
         id="path24"
         style="fill:#ffffff;fill-opacity:1;fill-rule:nonzero;stroke:none"
         d="m 2591.46,257.941 h 25.4 v -80.832 h -25.4 z m -2.15,23.254 c 0,7.754 6.1,14.352 14.84,14.352 8.74,0 14.84,-6.598 14.84,-14.352 0,-7.754 -6.1,-14.347 -14.84,-14.347 -8.74,0 -14.84,6.593 -14.84,14.347" /><path
         id="path26"
         style="fill:#ffffff;fill-opacity:1;fill-rule:nonzero;stroke:none"
         d="m 2688.98,218.188 c 0,14.511 -4.78,22.101 -15.01,22.101 -5.6,0 -10.05,-3.137 -12.2,-5.605 v -38.598 c 1.98,-0.832 5.11,-1.484 10.06,-1.484 10.39,0 17.15,7.089 17.15,23.586 z m -52.28,-36.625 v 114.316 h 25.07 v -44.375 c 3.95,3.961 10.89,8.414 19.63,8.414 19.63,0 34.14,-13.195 34.14,-41.73 0,-28.54 -18.97,-43.051 -43.71,-43.051 -17.82,0 -29.69,3.957 -35.13,6.426" /><path
         id="path28"
         style="fill:#ffffff;fill-opacity:1;fill-rule:nonzero;stroke:none"
         d="m 2730.33,257.941 h 25.07 v -10.558 c 3.63,6.105 10.23,12.535 20.13,12.535 6.26,0 9.72,-1.32 11.71,-2.477 L 2781.3,236 c -1.49,0.824 -4.13,1.98 -8.91,1.98 -9.07,0 -14.68,-7.089 -16.99,-10.886 v -49.985 h -25.07 v 80.832" /><path
         id="path30"
         style="fill:#ffffff;fill-opacity:1;fill-rule:nonzero;stroke:none"
         d="m 2838.28,198.555 v 13.535 h -2.65 c -11.37,0 -19.13,-3.477 -19.13,-11.719 0,-5.117 3.96,-7.59 9.08,-7.59 6.1,0 9.89,2.805 12.7,5.774 z m -45.53,-0.332 c 0,20.785 21.12,28.871 42.88,28.871 h 2.65 v 3.797 c 0,6.429 -2.81,9.398 -12.21,9.398 -9.07,0 -16.33,-4.121 -20.29,-7.258 l -10.56,15.012 c 6.11,5.445 17.49,11.875 33.99,11.875 23.42,0 34.14,-8.742 34.14,-30.844 v -26.398 c 0,-11.699 1.15,-20.117 2.3,-25.567 h -24.57 c -0.66,1.985 -1.31,5.938 -1.48,8.418 -3.97,-4.953 -11.55,-10.39 -22.11,-10.39 -13.86,0 -24.74,8.242 -24.74,23.086" /><path
         id="path32"
         style="fill:#ffffff;fill-opacity:1;fill-rule:nonzero;stroke:none"
         d="m 2882.2,257.941 h 25.07 v -10.558 c 3.63,6.105 10.22,12.535 20.12,12.535 6.26,0 9.73,-1.32 11.71,-2.477 L 2933.16,236 c -1.48,0.824 -4.13,1.98 -8.9,1.98 -9.07,0 -14.69,-7.089 -16.99,-10.886 v -49.985 h -25.07 v 80.832" /><path
         id="path34"
         style="fill:#ffffff;fill-opacity:1;fill-rule:nonzero;stroke:none"
         d="m 2949.91,257.941 h 25.4 v -80.832 h -25.4 z m -2.15,23.254 c 0,7.754 6.11,14.352 14.85,14.352 8.74,0 14.84,-6.598 14.84,-14.352 0,-7.754 -6.1,-14.347 -14.84,-14.347 -8.74,0 -14.85,6.593 -14.85,14.347" /><path
         id="path36"
         style="fill:#ffffff;fill-opacity:1;fill-rule:nonzero;stroke:none"
         d="m 3043.25,227.258 c -0.16,8.41 -3.46,15.012 -12.21,15.012 -8.25,0 -12.86,-5.278 -14.34,-15.012 z m -52.95,-9.403 c 0,26.063 18.31,42.063 41.08,42.063 26.22,0 38.59,-17.98 35.79,-49.156 h -49.82 c 1.16,-10.391 7.09,-17.324 18.98,-17.324 10.88,0 16.49,3.144 20.61,5.117 l 7.76,-15.664 c -5.62,-3.133 -13.69,-7.754 -30.85,-7.754 -27.55,0 -43.55,16.496 -43.55,42.718" /><path
         id="path38"
         style="fill:#ffffff;fill-opacity:1;fill-rule:nonzero;stroke:none"
         d="m 3076.73,182.727 8.07,17.312 c 3.31,-2.148 11.23,-6.601 19.97,-6.601 7.92,0 12.2,1.992 12.2,5.937 0,4.785 -9.89,5.781 -21.28,11.555 -10.72,5.277 -16.66,11.547 -16.66,23.422 0,15.836 12.71,25.566 31.51,25.566 14.02,0 22.59,-3.961 26.56,-6.105 l -8.25,-16.989 c -3.3,1.813 -9.73,4.781 -17.15,4.781 -7.43,0 -10.4,-2.304 -10.4,-5.937 0,-4.777 7.75,-5.77 16.99,-9.398 12.54,-5.114 21.11,-11.055 21.11,-24.579 0,-17.648 -12.53,-26.554 -33.15,-26.554 -15.18,0 -24.58,4.289 -29.52,7.59" /></g></g></svg>